<svg width="151" height="55" xmlns="http://www.w3.org/2000/svg"><g fill-rule="nonzero" fill="none"><g><ellipse fill="#F9B000" transform="rotate(-59.999 6.372 22.808)" cx="6.372" cy="22.808" rx="4.029" ry="5.032"></ellipse><ellipse fill="#F28B00" transform="rotate(-30.001 26.65 14.117)" cx="26.651" cy="14.117" rx="5.032" ry="4.029"></ellipse><ellipse fill="#FCBD00" transform="rotate(-30.001 16.515 8.46)" cx="16.515" cy="8.461" rx="2.346" ry="1.892"></ellipse><path d="M35.829 10.065c1.116.662 2.46.491 2.989-.398.549-.889.076-2.156-1.04-2.818-1.117-.662-2.46-.492-2.99.397-.548.889-.075 2.156 1.041 2.819Z" fill="#F28B00"></path><ellipse fill="#F9B000" cx="16.515" cy="17.102" rx="1.892" ry="2.346"></ellipse><ellipse fill="#FCBD00" transform="rotate(-30.001 6.375 13.492)" cx="6.375" cy="13.492" rx="3.878" ry="3.102"></ellipse><ellipse fill="#EE7100" transform="rotate(-59.999 46.935 13.495)" cx="46.935" cy="13.495" rx="3.102" ry="3.878"></ellipse><ellipse fill="#EE7100" transform="rotate(-59.999 26.663 24.086)" cx="26.663" cy="24.086" rx="3.102" ry="3.878"></ellipse><ellipse fill="#EE7100" transform="rotate(-30.001 36.794 17.104)" cx="36.794" cy="17.104" rx="3.878" ry="3.102"></ellipse><ellipse fill="#E84C05" cx="46.933" cy="22.134" rx="1.892" ry="2.346"></ellipse><ellipse fill="#F28B00" transform="rotate(-30.001 16.515 25.75)" cx="16.515" cy="25.75" rx="3.878" ry="3.102"></ellipse><ellipse fill="#F9B000" transform="rotate(-30.001 6.38 31.235)" cx="6.379" cy="31.235" rx="2.346" ry="1.892"></ellipse><path d="M7.321 37.778c-1.116-.643-2.46-.454-2.97.454-.51.908-.038 2.157 1.097 2.8 1.116.643 2.46.454 2.97-.454.53-.89.038-2.157-1.097-2.8Z" fill="#F28B00"></path><ellipse fill="#EE7100" cx="26.654" cy="32.046" rx="2.346" ry="1.892"></ellipse><ellipse fill="#E84C05" transform="rotate(-30.001 36.795 26.921)" cx="36.795" cy="26.921" rx="5.032" ry="4.029"></ellipse><ellipse fill="#E3000B" transform="rotate(-30.001 46.932 30.78)" cx="46.932" cy="30.78" rx="3.878" ry="3.102"></ellipse><path d="M35.867 37.173c1.116.643 2.46.454 2.97-.454.51-.908.038-2.157-1.097-2.8-1.116-.643-2.46-.454-2.97.454-.511.908-.038 2.138 1.097 2.8Z" fill="#E84C05"></path><path d="M45.987 37.797c-1.116.643-1.607 1.91-1.097 2.8.511.889 1.854 1.097 2.97.454s1.608-1.91 1.097-2.8c-.51-.89-1.834-1.097-2.97-.454Z" fill="#E3000B"></path><ellipse fill="#E84C05" cx="26.654" cy="40.691" rx="3.102" ry="3.878"></ellipse><ellipse fill="#F28B00" transform="rotate(-30.001 16.516 34.394)" cx="16.516" cy="34.394" rx="3.878" ry="3.102"></ellipse><ellipse fill="#E84C05" cx="26.654" cy="50.207" rx="5.032" ry="4.029"></ellipse><ellipse fill="#EE7100" transform="rotate(-59.999 16.514 43.767)" cx="16.514" cy="43.767" rx="3.102" ry="3.878"></ellipse><ellipse fill="#E3000B" transform="rotate(-30.001 36.79 43.757)" cx="36.791" cy="43.757" rx="3.878" ry="3.102"></ellipse><ellipse fill="#F9B000" transform="rotate(-59.999 26.655 4.626)" cx="26.655" cy="4.626" rx="3.102" ry="3.878"></ellipse></g><g fill="#193495"><path d="M141.935 46.6c-1.74 0-4.427-1.363-5.6-2.555-.435-.435-.643-.832-.643-1.172l-.019-3.16c0-.416.227-.548.435-.548s.417.132.606.34c1.646 1.76 3.348 2.63 5.202 2.63 2.686 0 3.954-1.003 3.954-3.14v-1.4c-1.06.605-2.365.908-3.935.908-2.46 0-4.408-.908-5.789-2.705-1.23-1.608-1.873-3.632-1.873-6.035 0-2.289.606-4.275 1.798-5.883 1.362-1.873 3.329-2.819 5.826-2.819 1.532 0 3.16.549 3.973 1.495v-.568c0-.378.246-.605.643-.605h3.291c.398 0 .644.227.644.605v16.326c0 2.686-.7 4.767-2.1 6.185-1.362 1.325-3.69 2.1-6.413 2.1Zm.435-21.396c-2.308 0-3.424 1.495-3.424 4.54 0 1.873.473 3.178 1.38 3.897.53.435 1.193.643 1.968.643 1.495 0 2.686-.435 3.557-1.305v-6.337c-.984-.946-2.157-1.438-3.481-1.438ZM84.351 46.637h-3.33c-.377 0-.604-.227-.604-.605V22.12c0-.19.075-.511.605-.606.87-.17 1.76-.302 2.648-.36a30.45 30.45 0 0 1 2.61-.113c2.838 0 5.146.72 6.887 2.157 1.835 1.551 2.78 3.745 2.78 6.545 0 2.894-.983 5.165-2.913 6.754-1.608 1.305-3.443 1.986-5.41 1.986-.984 0-1.873-.095-2.648-.265v7.813c-.038.378-.246.605-.625.605Zm.587-12.542c.586.208 1.324.303 2.213.303a4.27 4.27 0 0 0 2.8-1.003c.927-.832 1.4-2.024 1.4-3.537 0-1.495-.454-2.668-1.362-3.5-.833-.757-1.911-1.154-3.216-1.154-.34 0-.681.019-1.003.038-.265.019-.53.038-.794.076v8.777h-.038ZM101.547 38.162h-3.33c-.378 0-.605-.227-.605-.605V21.969c0-.378.227-.605.606-.605h3.329c.378 0 .605.227.605.605v.89c.7-.965 1.892-1.741 3.16-1.817h.245c1.438 0 2.8.625 4.03 1.854.416.416.189.738.075.87l-2.118 2.157c-.152.151-.303.227-.473.227-.133 0-.303-.057-.473-.303-.246-.36-.681-.567-1.287-.643-.832-.094-1.532.227-2.118.984-.7.889-1.06 2.232-1.06 4.01v7.378c.02.36-.208.586-.586.586ZM114.41 38.162h-3.329c-.378 0-.605-.227-.605-.605V21.969c0-.378.227-.605.605-.605h3.33c.378 0 .605.227.605.605v15.588c0 .378-.227.605-.605.605ZM132.136 38.162h-3.292c-.378 0-.605-.227-.605-.605v-8.513c0-1.267-.17-2.213-.53-2.818-.454-.72-1.23-1.079-2.383-1.079-.833 0-1.476.284-1.968.852-.435.435-.7.908-.794 1.4-.152.756-.208 1.626-.208 2.553v7.586c0 .378-.227.605-.606.605h-3.33c-.377 0-.604-.227-.604-.605V21.95c0-.378.227-.605.605-.605h3.33c.378 0 .605.227.605.605v.398c.719-.738 2.137-1.325 3.632-1.325 2.175 0 3.878.681 5.07 2.006 1.116 1.248 1.702 2.932 1.702 5.032v9.496c0 .378-.227.605-.624.605ZM69.728 38.522c-3.102 0-5.94-.927-8.474-2.781a.714.714 0 0 1-.284-.397c-.038-.17.019-.34.151-.53l2.195-2.819a.594.594 0 0 1 .491-.283c.152 0 .284.056.454.17.89.68 1.552 1.135 1.987 1.38.983.493 2.156.739 3.48.739 2.914 0 4.332-1.003 4.332-3.084 0-1.04-.643-1.816-1.986-2.365a66.785 66.785 0 0 0-2.1-.68l-2.118-.663c-1.003-.34-1.854-.68-2.535-1.021-.681-.34-1.211-.643-1.608-.908-1.892-1.381-2.857-3.292-2.857-5.713 0-2.119.833-3.821 2.46-5.07 1.607-1.23 3.915-1.854 6.866-1.854 2.516 0 4.995.738 7.378 2.176.17.094.284.227.322.378.037.17-.02.34-.152.53l-1.967 2.95c-.17.247-.378.303-.53.303a.742.742 0 0 1-.34-.075c-1.722-1.154-3.292-1.74-4.73-1.74-2.932 0-4.37.775-4.37 2.402 0 .851.568 1.551 1.722 2.156.454.227 1.816.72 4.086 1.457 2.308.719 4.048 1.57 5.221 2.554 1.476 1.324 2.233 3.064 2.233 5.183 0 2.27-.852 4.124-2.554 5.524-1.722 1.38-3.992 2.08-6.773 2.08ZM112.084 19.037c-.795 0-1.495-.36-1.835-.965-.587-1.021-.057-2.44 1.21-3.159a3.143 3.143 0 0 1 1.514-.416c.794 0 1.494.36 1.835.965.284.51.321 1.116.075 1.721-.227.587-.68 1.097-1.286 1.457-.492.246-1.003.397-1.513.397Z"></path></g></g></svg>